<?xml version="1.0" encoding="utf-8"?>
<!-- Generator: Adobe Illustrator 23.0.3, SVG Export Plug-In . SVG Version: 6.00 Build 0)  -->
<svg version="1.1" id="Layer_1" xmlns="http://www.w3.org/2000/svg" xmlns:xlink="http://www.w3.org/1999/xlink" x="0px" y="0px"
	 viewBox="0 0 148 148" style="enable-background:new 0 0 148 148;" xml:space="preserve">
<style type="text/css">
	.st0{fill:url(#SVGID_1_);}
	.st1{fill:url(#SVGID_2_);}
	.st2{fill:url(#SVGID_3_);}
	.st3{fill:url(#SVGID_4_);}
	.st4{fill:url(#SVGID_5_);}
	.st5{fill:url(#SVGID_6_);}
	.st6{fill:url(#SVGID_7_);}
	.st7{fill:url(#SVGID_8_);}
	.st8{fill:url(#SVGID_9_);}
	.st9{fill:url(#SVGID_10_);}
	.st10{fill:url(#SVGID_11_);}
	.st11{fill:url(#SVGID_12_);}
	.st12{fill:url(#SVGID_13_);}
	.st13{fill:url(#SVGID_14_);}
	.st14{fill:url(#SVGID_15_);}
	.st15{fill:url(#SVGID_16_);}
	.st16{fill:url(#SVGID_17_);}
	.st17{fill:url(#SVGID_18_);}
	.st18{fill:url(#SVGID_19_);}
	.st19{fill:url(#SVGID_20_);}
	.st20{fill:#010101;}
	.st21{fill:url(#SVGID_21_);}
	.st22{fill:url(#SVGID_22_);}
	.st23{fill:url(#SVGID_23_);}
	.st24{fill:url(#SVGID_24_);}
	.st25{fill:url(#SVGID_25_);}
	.st26{fill:url(#SVGID_26_);}
	.st27{fill:#FF462E;}
	.st28{fill:url(#SVGID_27_);}
	.st29{fill:url(#SVGID_28_);}
	.st30{fill:url(#SVGID_29_);}
	.st31{fill:url(#SVGID_30_);}
	.st32{fill:url(#SVGID_31_);}
	.st33{fill:url(#SVGID_32_);}
	.st34{fill:url(#SVGID_33_);}
	.st35{fill:url(#SVGID_34_);}
	.st36{fill:url(#SVGID_35_);}
	.st37{fill:url(#SVGID_36_);}
	.st38{fill:url(#SVGID_37_);}
	.st39{fill:url(#SVGID_38_);}
	.st40{fill:url(#SVGID_39_);}
	.st41{fill:#EFEFEF;}
	.st42{fill:#FFB70D;}
	.st43{fill:#FF3100;}
	.st44{fill:#FFCC01;}
	.st45{fill:#FF3600;}
	.st46{fill:#DF2A00;}
	.st47{fill:#FC3100;}
	.st48{fill:#DF2901;}
	.st49{fill:url(#SVGID_40_);}
	.st50{fill:url(#SVGID_41_);}
	.st51{fill:url(#SVGID_42_);}
	.st52{fill:url(#SVGID_43_);}
	.st53{fill:url(#SVGID_44_);}
	.st54{fill:url(#SVGID_45_);}
	.st55{fill:url(#SVGID_46_);}
	.st56{fill:url(#SVGID_47_);}
	.st57{fill:#F46F24;}
	.st58{fill:#EF2F3E;}
	.st59{fill:#28A54A;}
	.st60{fill:#27B0C3;}
	.st61{fill:#494C55;}
	.st62{fill:#71BD43;}
	.st63{fill:#F05924;}
	.st64{fill:url(#SVGID_48_);}
	.st65{fill:#F24C8A;}
	.st66{fill:#D9D9D9;}
	.st67{fill:#7DD2F0;}
	.st68{fill:#EEE25C;}
	.st69{fill:#464655;}
	.st70{fill:#61B9D9;}
	.st71{fill:#FF6B58;}
	.st72{fill:#FFCE6E;}
	.st73{fill:#F4432C;}
	.st74{fill:#6B6B82;}
	.st75{fill:#B9E578;}
</style>
<linearGradient id="SVGID_1_" gradientUnits="userSpaceOnUse" x1="22.2127" y1="19.4026" x2="131.4018" y2="149.5291">
	<stop  offset="0" style="stop-color:#FF7F18"/>
	<stop  offset="0.116" style="stop-color:#FF612D"/>
	<stop  offset="0.3498" style="stop-color:#FF2955"/>
	<stop  offset="0.4627" style="stop-color:#FF1364"/>
	<stop  offset="1" style="stop-color:#580DBF"/>
</linearGradient>
<path class="st0" d="M136.7,135c-3.8,0.4-3.4-2-3.4-4.4c0-15.5,0.1-31,0-46.5c0-2.5,0.4-4.3,2.7-5.9c3.1-2.2,5.1-5.5,5.3-9.2
	c0.5-8.5,1.9-17.3-3.6-25.1c-3.8-5.5-4.7-11.8-4.5-18.5c0.3-7-3.1-10.2-9.9-10.3c-30.5-0.1-60.9,0-91.4,0c-6.6,0-10.3,3.1-9.9,9.7
	c0.5,7.9-1.7,14.7-5.6,21.2c-4.7,7.9-2.9,16.4-2,24.8c0.3,3,2.2,5.7,4.8,7.3c2.3,1.5,2.7,3.4,2.7,5.9c-0.1,15.3-0.1,30.6,0,46
	c0,3.3-0.3,5.4-4.4,5c-2.3-0.2-3.8,1.5-3.8,3.8c-0.1,2.5,1.4,4,3.9,4.3c1.3,0.1,2.7,0.1,4,0.1c18.6,0,37.3,0,55.9,0
	c4.7,0,9.3,0,14,0c14.8,0,29.6,0,44.5,0c2.8,0,5.2-0.7,5.4-3.8C141.8,136.2,139.6,134.8,136.7,135z M34.9,23.4
	c28.5,0.1,56.9,0.1,85.4,0c3.2,0,4.6,0.4,4.7,4.2c0.1,4.1-1.5,4.5-4.9,4.5C106,31.9,91.8,32,77.7,32c-14.1,0-28.3-0.1-42.4,0.1
	c-3.4,0-5.1-0.3-5-4.5C30.3,23.8,31.7,23.4,34.9,23.4z M35.7,40.2c27.9,0,55.9,0,83.8,0c7.8,0,7.8,0,10.5,8.1
	c-34.9,0-69.8,0-104.7,0C27.8,40.2,27.8,40.2,35.7,40.2z M111.1,62c-0.6,7.7-3,11.5-8.7,11.4c-5.5-0.1-8.1-3.9-8-11.9
	c0-4.5,0-4.5,8.9-4.5C106.1,58,111.7,54.1,111.1,62z M74.8,57c1,0.1,2.1-0.3,3,0.1c2.9,1.2,8.6-3.5,8.3,4.3
	c-0.3,8.1-2.5,11.8-7.9,12c-5.4,0.2-8.5-3.3-8.7-9.8c0-0.5,0-1,0-2C68.2,57.4,70.7,56.4,74.8,57z M61,62c-0.6,7.7-3,11.5-8.6,11.4
	c-5.6-0.1-7.8-3.9-8.1-11.9c-0.3-8.2,5.8-2.9,8.4-4.7C56,58,61.6,54.1,61,62z M21.8,62.3c-0.5-6.6,3.6-5.1,8.6-5.3
	c2.5-0.2,6.3-1,5.6,5.7c-0.8,7.7-2.2,10.9-7.2,10.8C23.9,73.3,22.4,70,21.8,62.3z M39.3,134.9c-8.9,0-8.9,0-8.9-8.8c0-8,0-8,9-8
	c9.1,0,9.1,0,9.1,8.9C48.5,134.9,48.5,134.9,39.3,134.9z M70.2,135c-13.4,0.5-13.4,0.5-13.4-12.8c0-6.7,0.1-13.3-0.1-20
	c-0.1-2.9,0.9-3.6,3.7-3.6c13.2-0.3,13.2-0.4,13.2,12.6c0,2,0,4,0,6c0,4.8-0.1,9.7,0.1,14.5C73.7,134.3,72.7,134.9,70.2,135z
	 M94.9,135c-3.2-0.2-6.3-0.2-9.5,0c-2.7,0.2-3.8-0.6-3.7-3.6c0.2-9.8,0.2-19.7,0-29.5c0-2.7,1-3.3,3.5-3.3
	c13.4-0.5,13.4-0.6,13.4,12.8c0,1.8,0,3.7,0,5.5c0,4.8-0.2,9.7,0.1,14.5C98.8,134.4,97.7,135.2,94.9,135z M115.8,134.9
	c-9,0-9,0-9-8.1c0-8.6,0-8.6,8.9-8.6c9.2,0,9.2,0,9.2,8.2C124.9,134.9,124.9,134.9,115.8,134.9z M124.9,106.2
	c0.1,2.7-0.6,4.2-3.6,3.7c-0.5-0.1-1,0-1.5,0c-4.1-0.2-9.3,1.7-12.1-0.7c-2.8-2.3-0.7-7.5-0.9-11.4c-0.3-4.7-2.8-7.3-7.2-7.3
	c-14.7-0.2-29.3-0.2-44,0c-4.4,0.1-7,2.7-7.1,7.4c0,0.3,0,0.7,0,1c-0.4,3.6,1.7,9.1-0.9,10.3c-4.6,2.2-10.4,0.7-15.7,0.7
	c-2,0-1.5-1.9-1.5-3.1c-0.1-3.7,0-7.3,0-11c0-1.2,0-2.3,0-3.5c0-10.4,0-10.3,9-14.6c1.2-0.6,1.8-0.1,2.6,0.5
	c7.2,5.4,14.4,5.2,21.5-0.4c1.3-1,1.9-0.9,3.2,0c8.2,5.7,13.6,5.7,21.8,0c1.3-0.9,2-1,3.2,0c6.8,5.5,13.9,5.7,21.1,0.6
	c1.4-1,2.4-1.6,3.7,0c0.3,0.4,0.8,0.8,1.2,0.9c8.2,1.4,7.4,7.5,7.1,13.5C124.7,97.2,124.7,101.7,124.9,106.2z M126.3,73.5
	c-4.9,0-6.8-3.1-6.8-11.1c0-5.4,0-5.4,5.9-5.4c4.5,0.1,8.9-1.6,8.2,5.5C132.8,70.1,131.2,73.5,126.3,73.5z"/>
</svg>
